<?xml version="1.0" encoding="UTF-8" standalone="no"?>
<!-- Created with Inkscape (http://www.inkscape.org/) -->

<svg
   xmlns:dc="http://purl.org/dc/elements/1.1/"
   xmlns:cc="http://creativecommons.org/ns#"
   xmlns:rdf="http://www.w3.org/1999/02/22-rdf-syntax-ns#"
   xmlns:svg="http://www.w3.org/2000/svg"
   xmlns="http://www.w3.org/2000/svg"
   xmlns:xlink="http://www.w3.org/1999/xlink"
   xmlns:sodipodi="http://sodipodi.sourceforge.net/DTD/sodipodi-0.dtd"
   xmlns:inkscape="http://www.inkscape.org/namespaces/inkscape"
   width="256"
   height="256"
   id="svg2"
   version="1.1"
   inkscape:version="0.48.5 r10040"
   sodipodi:docname="data_nuggets.svg"
   inkscape:export-filename="/home/kris/Kaggle/kaggle_sentiment/logo/data_nuggets.png"
   inkscape:export-xdpi="90"
   inkscape:export-ydpi="90">
  <defs
     id="defs4" />
  <sodipodi:namedview
     id="base"
     pagecolor="#ffffff"
     bordercolor="#666666"
     borderopacity="1.0"
     inkscape:pageopacity="0.0"
     inkscape:pageshadow="2"
     inkscape:zoom="2.8284271"
     inkscape:cx="61.256767"
     inkscape:cy="97.868039"
     inkscape:document-units="px"
     inkscape:current-layer="layer1"
     showgrid="false"
     inkscape:window-width="1920"
     inkscape:window-height="1056"
     inkscape:window-x="0"
     inkscape:window-y="24"
     inkscape:window-maximized="1"
     showborder="true"
     inkscape:showpageshadow="false"
     borderlayer="false"
     units="pt" />
  <metadata
     id="metadata7">
    <rdf:RDF>
      <cc:Work
         rdf:about="">
        <dc:format>image/svg+xml</dc:format>
        <dc:type
           rdf:resource="http://purl.org/dc/dcmitype/StillImage" />
        <dc:title></dc:title>
      </cc:Work>
    </rdf:RDF>
  </metadata>
  <g
     inkscape:label="Layer 1"
     inkscape:groupmode="layer"
     id="layer1"
     transform="translate(0,-796.36218)">
    <g
       id="g3045"
       transform="matrix(0.97656466,0,0,0.97656466,2.9999987,-16.645033)">
      <g
         transform="translate(117.85714,387.22016)"
         id="g2986">
        <path
           style="fill:#ffffff"
           inkscape:connector-curvature="0"
           d="m 137.42831,567.24361 -5.783,1.92095 c -6.07364,-4.84534 -13.7882,-4.23118 -13.7882,-4.23118 h -8.48463 l 0.69158,-1.46803 -6.50852,-8.22794 9.60156,-0.0785 C 78.993686,522.8772 57.301063,520.77805 57.301063,520.77805 l -1.093594,1.30044 -39.990967,-33.76777 -42.090117,34.56542 -0.949337,-1.37892 c -30.601544,5.94529 -56.838258,33.63836 -56.838258,33.63836 h 8.474029 l -5.07975,5.41387 3.192743,5.14764 h -40.068402 v 20.10262 c 3.10364,-0.14002 2.90317,2.52873 2.90317,2.52873 l 0.28957,51.84761 c 0.13365,3.04212 -1.02677,3.62233 -1.02677,3.62233 l -1.95383,0.58551 V 664.268 h 20.330674 l 2.232799,-1.16148 0.35746,1.22194 h 15.049383 l 8.183394,-4.76153 c 5.738452,5.38735 12.715817,4.84533 12.715817,4.84533 5.180517,-0.0392 9.433973,-2.79179 9.433973,-2.79179 2.511766,-1.58471 9.121063,-5.9559 9.121063,-5.9559 5.828613,9.42336 15.798246,8.70844 15.798246,8.70844 5.97287,0 9.534741,-2.66238 9.534741,-2.66238 l 9.3894247,-6.09061 c 5.30355993,8.82512 15.5182173,8.66389 15.5182173,8.66389 8.094294,0.41899 13.576054,-5.28128 13.576054,-5.28128 l 4.164355,5.26431 h 34.163415 v -5.53267 l 7.278607,5.53267 h 24.405924 v -5.42024 l 7.731533,4.19194 3.52156,-2.75255 c 4.97898,4.23118 12.32547,4.12617 12.32547,4.12617 13.35331,0 17.36068,-9.30563 17.36068,-9.30563 2.0546,-3.66688 2.13309,-8.77421 2.13309,-8.77421 v -17.94088 c 0,-10.58909 -6.27517,-15.72506 -6.27517,-15.72506 -1.68548,-1.74169 -8.48464,-6.21789 -8.48464,-6.21789 h 14.79269 v -39.20498 z"
           id="path2988" />
        <path
           style="fill:none;stroke:#ffffff;stroke-width:1.42909741"
           inkscape:connector-curvature="0"
           d="m 137.42831,567.24361 -5.783,1.92095 c -6.07364,-4.84534 -13.7882,-4.23118 -13.7882,-4.23118 h -8.48463 l 0.69158,-1.46803 -6.50852,-8.22794 9.60156,-0.0785 C 78.993686,522.8772 57.301063,520.77805 57.301063,520.77805 l -1.093594,1.30044 -39.990967,-33.76777 -42.090117,34.56542 -0.949337,-1.37892 c -30.601544,5.94529 -56.838258,33.63836 -56.838258,33.63836 h 8.474029 l -5.07975,5.41387 3.192743,5.14764 h -40.068402 v 20.10262 c 3.10364,-0.14002 2.90317,2.52873 2.90317,2.52873 l 0.28957,51.84761 c 0.13365,3.04212 -1.02677,3.62233 -1.02677,3.62233 l -1.95383,0.58551 V 664.268 h 20.330674 l 2.232799,-1.16148 0.35746,1.22194 h 15.049383 l 8.183394,-4.76153 c 5.738452,5.38735 12.715817,4.84533 12.715817,4.84533 5.180517,-0.0392 9.433973,-2.79179 9.433973,-2.79179 2.511766,-1.58471 9.121063,-5.9559 9.121063,-5.9559 5.828613,9.42336 15.798246,8.70844 15.798246,8.70844 5.97287,0 9.534741,-2.66238 9.534741,-2.66238 l 9.3894247,-6.09061 c 5.30355993,8.82512 15.5182173,8.66389 15.5182173,8.66389 8.094294,0.41899 13.576054,-5.28128 13.576054,-5.28128 l 4.164355,5.26431 h 34.163415 v -5.53267 l 7.278607,5.53267 h 24.405924 v -5.42024 l 7.731533,4.19194 3.52156,-2.75255 c 4.97898,4.23118 12.32547,4.12617 12.32547,4.12617 13.35331,0 17.36068,-9.30563 17.36068,-9.30563 2.0546,-3.66688 2.13309,-8.77421 2.13309,-8.77421 v -17.94088 c 0,-10.58909 -6.27517,-15.72506 -6.27517,-15.72506 -1.68548,-1.74169 -8.48464,-6.21789 -8.48464,-6.21789 h 14.79269 v -39.20498 z"
           id="path2990" />
        <path
           style="fill:#6caedf"
           inkscape:connector-curvature="0"
           d="m 137.42831,567.24361 -5.783,1.92095 c -6.07364,-4.84534 -13.7882,-4.23118 -13.7882,-4.23118 h -8.48463 l 0.69158,-1.46803 -6.50852,-8.22794 9.60156,-0.0785 C 78.993686,522.8772 57.301063,520.77805 57.301063,520.77805 l -1.093594,1.30044 -39.990967,-33.76777 -42.090117,34.56542 -0.949337,-1.37892 c -30.601544,5.94529 -56.838258,33.63836 -56.838258,33.63836 h 8.474029 l -5.07975,5.41387 3.192743,5.14764 h -40.068402 v 20.10262 c 3.10364,-0.14002 2.90317,2.52873 2.90317,2.52873 l 0.28957,51.84761 c 0.13365,3.04212 -1.02677,3.62233 -1.02677,3.62233 l -1.95383,0.58551 V 664.268 h 20.330674 l 2.232799,-1.16148 0.35746,1.22194 h 15.049383 l 8.183394,-4.76153 c 5.738452,5.38735 12.715817,4.84533 12.715817,4.84533 5.180517,-0.0392 9.433973,-2.79179 9.433973,-2.79179 2.511766,-1.58471 9.121063,-5.9559 9.121063,-5.9559 5.828613,9.42336 15.798246,8.70844 15.798246,8.70844 5.97287,0 9.534741,-2.66238 9.534741,-2.66238 l 9.3894247,-6.09061 c 5.30355993,8.82512 15.5182173,8.66389 15.5182173,8.66389 8.094294,0.41899 13.576054,-5.28128 13.576054,-5.28128 l 4.164355,5.26431 h 34.163415 v -5.53267 l 7.278607,5.53267 h 24.405924 v -5.42024 l 7.731533,4.19194 3.52156,-2.75255 c 4.97898,4.23118 12.32547,4.12617 12.32547,4.12617 13.35331,0 17.36068,-9.30563 17.36068,-9.30563 2.0546,-3.66688 2.13309,-8.77421 2.13309,-8.77421 v -17.94088 c 0,-10.58909 -6.27517,-15.72506 -6.27517,-15.72506 -1.68548,-1.74169 -8.48464,-6.21789 -8.48464,-6.21789 h 14.79269 v -39.20498 z"
           id="path2992" />
        <path
           style="fill:#007dc5"
           inkscape:connector-curvature="0"
           d="m 134.16874,602.86868 v -19.68151 h -0.11137 l 0.0223,-11.19263 -3.22668,1.07238 c -4.81245,-5.18052 -12.91735,-4.80609 -12.91735,-4.80609 -1.58577,0.10077 -2.3113,0.21214 -2.3113,0.21214 l -22.809545,-0.0223 -76.900566,-17.96846 -79.55765,18.05332 h -50.171689 v 13.25465 h -0.0117 l 0.0117,0.12305 v 0.61945 h 0.10077 l 0.0552,0.37443 0.80402,0.60885 c 2.19991,1.04268 2.02065,6.58066 2.02065,6.63157 0,0.0223 0.1782,50.60764 0.1782,50.60764 0.0668,4.33195 0.3458,15.64126 0.22275,15.70915 l 13.107226,4.91215 5.671628,-2.02596 12.091057,2.02596 9.925083,-5.85619 c 3.159861,1.11693 16.523773,2.75255 18.734297,3.89706 0,0 12.549285,-8.27356 12.872802,-8.47933 2.132031,2.22219 19.269957,7.05585 23.925422,7.16192 0.03394,-0.0117 8.3626552,-5.42024 10.7619855,-6.98903 1.7077464,4.53773 5.83922,9.70658 15.0833255,10.04813 0.280028,0.0223 6.676122,0.13471 12.16955,-6.6931 l 5.671627,6.91054 29.82086,-0.61945 0.05516,-7.89807 11.086563,8.51752 20.207626,-0.67567 0.200475,-7.19481 10.785313,5.95059 c 0,0 0.79236,-3.40594 3.83978,-3.59051 5.58253,5.47116 11.81209,5.13597 12.06878,5.1243 4.54409,0.0509 9.74688,-1.48924 12.40397,-4.16966 4.14102,-4.15905 3.95221,-9.48913 3.95221,-9.71824 v -18.29834 c 0.15593,-9.65673 -5.28129,-13.86669 -5.53798,-14.06823 -6.73234,-4.86761 -11.41008,-8.25552 -11.45463,-8.2884 -1.52954,-0.98859 -1.64092,-3.65628 -1.74169,-5.14234 l 5.72679,2.08218 13.1751,-0.51869 z"
           id="path2994" />
        <path
           style="fill:none;stroke:#6caedf;stroke-width:0.31439507"
           inkscape:connector-curvature="0"
           d="m 134.16874,602.86868 v -19.68151 h -0.11137 l 0.0223,-11.19263 -3.22668,1.07238 c -4.81245,-5.18052 -12.91735,-4.80609 -12.91735,-4.80609 -1.58577,0.10077 -2.3113,0.21214 -2.3113,0.21214 l -22.809545,-0.0223 -76.900566,-17.96846 -79.55765,18.05332 h -50.171689 v 13.25465 h -0.0117 l 0.0117,0.12305 v 0.61945 h 0.10077 l 0.0552,0.37443 0.80402,0.60885 c 2.19991,1.04268 2.02065,6.58066 2.02065,6.63157 0,0.0223 0.1782,50.60764 0.1782,50.60764 0.0668,4.33195 0.3458,15.64126 0.22275,15.70915 l 13.107226,4.91215 5.671628,-2.02596 12.091057,2.02596 9.925083,-5.85619 c 3.159861,1.11693 16.523773,2.75255 18.734297,3.89706 0,0 12.549285,-8.27356 12.872802,-8.47933 2.132031,2.22219 19.269957,7.05585 23.925422,7.16192 0.03394,-0.0117 8.3626552,-5.42024 10.7619855,-6.98903 1.7077464,4.53773 5.83922,9.70658 15.0833255,10.04813 0.280028,0.0223 6.676122,0.13471 12.16955,-6.6931 l 5.671627,6.91054 29.82086,-0.61945 0.05516,-7.89807 11.086563,8.51752 20.207626,-0.67567 0.200475,-7.19481 10.785313,5.95059 c 0,0 0.79236,-3.40594 3.83978,-3.59051 5.58253,5.47116 11.81209,5.13597 12.06878,5.1243 4.54409,0.0509 9.74688,-1.48924 12.40397,-4.16966 4.14102,-4.15905 3.95221,-9.48913 3.95221,-9.71824 v -18.29834 c 0.15593,-9.65673 -5.28129,-13.86669 -5.53798,-14.06823 -6.73234,-4.86761 -11.41008,-8.25552 -11.45463,-8.2884 -1.52954,-0.98859 -1.64092,-3.65628 -1.74169,-5.14234 l 5.72679,2.08218 13.1751,-0.51869 z"
           id="path2996" />
        <path
           style="fill:#fdb827"
           inkscape:connector-curvature="0"
           d="m 56.284901,526.93443 1.910342,-2.48949 0.301243,-0.40732 0.491109,0.0944 c 19.548924,3.61172 44.232755,25.80076 45.281795,26.73843 l 1.59744,1.44044 h -2.15537 -7.391042 c 5.649352,5.68224 9.825372,10.52227 10.126622,10.8967 l -0.49111,0.79235 -11.645561,18.35987 -0.44656,0.68628 -0.680977,-0.41898 c -0.301242,-0.17926 -30.892179,-18.0703 -76.486888,-20.05701 -0.435953,-0.0117 -42.837919,-1.50197 -80.372277,17.76799 l -0.680977,0.34049 -0.40201,-0.62582 -11.599948,-18.47443 -0.301242,-0.50277 0.345792,-0.45187 c 0.200475,-0.23441 2.467216,-3.07606 8.306437,-8.1452 h -6.50853 -2.087481 l 1.529547,-1.43939 c 0.234417,-0.21851 23.400369,-21.59716 46.466614,-26.28126 l 0.513385,-0.11138 0.323517,0.42959 1.796846,2.51177 82.259284,-0.6534 z m -84.938642,-0.25139 c -24.818542,15.1109 -37.479201,26.02457 -42.915351,31.33874 3.438829,-1.69714 8.819821,-4.15375 16.009328,-6.6931 l 31.795905,-17.83481 -3.774013,-5.26325 -1.115869,-1.54758 z m 119.447849,29.03911 c 3.818564,1.63562 7.681677,3.43883 11.566002,5.39797 C 97.983615,556.23023 89.074694,546.77399 80.433073,540.7502 80.311091,540.63246 66.266202,529.87578 59.075635,526.00206 l -1.29513,1.68547 -5.07975,6.28578 38.093353,21.74884 z m 3.852507,-5.06914 h 6.854325 c -5.213404,-4.45499 -21.971594,-18.14242 -37.019917,-23.33354 7.334824,4.71698 16.478163,11.7389 16.924723,12.10272 4.58864,3.17577 9.22183,7.31255 13.240869,11.23082 M -66.099,550.8206 c 6.620965,-5.56025 17.003215,-13.37452 32.633869,-23.10443 -17.326732,5.31417 -33.783681,18.69505 -38.874038,23.10443 H -66.099 z"
           id="path2998" />
        <path
           style="fill:none;stroke:#fdb827;stroke-width:0.31439507"
           inkscape:connector-curvature="0"
           d="m 56.284901,526.93443 1.910342,-2.48949 0.301243,-0.40732 0.491109,0.0944 c 19.548924,3.61172 44.232755,25.80076 45.281795,26.73843 l 1.59744,1.44044 h -2.15537 -7.391042 c 5.649352,5.68224 9.825372,10.52227 10.126622,10.8967 l -0.49111,0.79235 -11.645561,18.35987 -0.44656,0.68628 -0.680977,-0.41898 c -0.301242,-0.17926 -30.892179,-18.0703 -76.486888,-20.05701 -0.435953,-0.0117 -42.837919,-1.50197 -80.372277,17.76799 l -0.680977,0.34049 -0.40201,-0.62582 -11.599948,-18.47443 -0.301242,-0.50277 0.345792,-0.45187 c 0.200475,-0.23441 2.467216,-3.07606 8.306437,-8.1452 h -6.50853 -2.087481 l 1.529547,-1.43939 c 0.234417,-0.21851 23.400369,-21.59716 46.466614,-26.28126 l 0.513385,-0.11138 0.323517,0.42959 1.796846,2.51177 82.259284,-0.6534 z m -84.938642,-0.25139 c -24.818542,15.1109 -37.479201,26.02457 -42.915351,31.33874 3.438829,-1.69714 8.819821,-4.15375 16.009328,-6.6931 l 31.795905,-17.83481 -3.774013,-5.26325 -1.115869,-1.54758 z m 119.447849,29.03911 c 3.818564,1.63562 7.681677,3.43883 11.566002,5.39797 C 97.983615,556.23023 89.074694,546.77399 80.433073,540.7502 80.311091,540.63246 66.266202,529.87578 59.075635,526.00206 l -1.29513,1.68547 -5.07975,6.28578 38.093353,21.74884 z m 3.852507,-5.06914 h 6.854325 c -5.213404,-4.45499 -21.971594,-18.14242 -37.019917,-23.33354 7.334824,4.71698 16.478163,11.7389 16.924723,12.10272 4.58864,3.17577 9.22183,7.31255 13.240869,11.23082 z M -66.099,550.8206 c 6.620965,-5.56025 17.003215,-13.37452 32.633869,-23.10443 -17.326732,5.31417 -33.783681,18.69505 -38.874038,23.10443 H -66.099 z"
           id="path3000" />
        <path
           style="fill:#6caedf"
           inkscape:connector-curvature="0"
           d="m 93.32921,580.81966 c -4.823058,-2.67936 -34.341615,-18.04801 -76.570684,-19.90638 -0.418982,-0.0223 -42.742455,-1.49667 -80.523959,17.61737 l -10.729103,-17.10929 c 4.978983,-2.8024 35.647351,-18.90719 85.385203,-20.34764 0.480502,-0.0276 45.450452,-2.35054 93.188863,22.80319 l -10.75032,16.94275 z"
           id="path3002" />
        <path
           style="fill:none;stroke:#fdb827;stroke-width:0.31439507"
           inkscape:connector-curvature="0"
           d="m 93.32921,580.81966 c -4.823058,-2.67936 -34.341615,-18.04801 -76.570684,-19.90638 -0.418982,-0.0223 -42.742455,-1.49667 -80.523959,17.61737 l -10.729103,-17.10929 c 4.978983,-2.8024 35.647351,-18.90719 85.385203,-20.34764 0.480502,-0.0276 45.450452,-2.35054 93.188863,22.80319 l -10.75032,16.94275 z"
           id="path3004" />
        <path
           style="fill:#007dc5"
           inkscape:connector-curvature="0"
           d="m -21.318917,542.54811 c 6.039694,-1.02677 11.5999473,-1.71411 16.5237739,-2.16067 4.96837488,-0.46884 10.1711677,-0.80932 15.6073171,-0.96525 0.412617,-0.0276 37.390101,-1.92625 79.981934,16.29996 l -74.745199,-63.43588 -71.608673,59.04347 c 8.797546,-3.13228 20.302029,-6.42579 34.240847,-8.78163"
           id="path3006" />
        <g
           transform="matrix(1.0607121,0,0,1.0607121,-122.44615,483.02731)"
           id="g3008">
          <defs
             id="defs3010">
            <path
               inkscape:connector-curvature="0"
               id="SVGID_1_"
               d="M 83.888,42.131 C 69.147,51.304 59.364,58.672 53.122,63.908 h -5.884 c 4.8,-4.147 20.309,-16.772 36.65,-21.777 m 108.296,11.036 c -0.427,-0.342 -9.041,-6.963 -15.956,-11.41 14.183,4.889 29.986,17.798 34.901,21.998 h -6.462 C 200.883,60.061 196.51,56.161 192.184,53.167 M 88.424,41.163 89.476,42.61 93.034,47.573 63.058,64.392 C 56.28,66.787 51.201,69.097 47.965,70.697 53.096,65.692 65.026,55.403 88.424,41.163 m 112.611,27.371 -35.907,-20.504 4.784,-5.926 1.221,-1.589 c 6.778,3.652 20.02,13.789 20.135,13.904 8.146,5.678 16.546,14.593 20.672,19.198 -3.663,-1.841 -7.305,-3.541 -10.905,-5.083 m -30.733,-29.487 -1.801,2.347 -77.551,0.616 -1.694,-2.368 -0.311,-0.405 -0.484,0.105 c -21.74,4.416 -43.58,24.566 -43.807,24.777 l -1.437,1.357 h 1.974 6.131 c -5.505,4.779 -7.642,7.452 -7.831,7.679 l -0.326,0.426 0.284,0.468 10.936,17.424 0.379,0.595 0.642,-0.326 c 35.386,-18.167 75.361,-16.767 75.772,-16.746 42.985,1.868 71.825,18.735 72.109,18.904 l 0.642,0.399 0.421,-0.652 10.979,-17.314 0.447,-0.71 -0.068,-0.031 c -0.306,-0.348 -4.137,-4.916 -9.463,-10.278 h 6.968 2.032 l -1.511,-1.357 C 212.75,63.078 189.478,42.159 171.048,38.754 l -0.463,-0.089 -0.283,0.382 z" />
          </defs>
          <clipPath
             id="SVGID_2_">
            <use
               height="1"
               width="1"
               y="0"
               x="0"
               style="overflow:visible"
               xlink:href="#SVGID_1_"
               overflow="visible"
               id="use3014" />
          </clipPath>
          <path
             style="fill:#007dc5"
             inkscape:connector-curvature="0"
             clip-path="url(#SVGID_2_)"
             d="m 95.339,56.114 c 5.694,-0.968 10.936,-1.616 15.578,-2.037 4.684,-0.442 9.589,-0.763 14.714,-0.91 0.389,-0.026 35.25,-1.816 75.404,15.367 L 130.568,8.729 63.058,64.393 c 8.294,-2.953 19.14,-6.058 32.281,-8.279"
             id="path3016" />
          <path
             style="fill:none;stroke:#fdb827;stroke-width:0.29640001"
             inkscape:connector-curvature="0"
             clip-path="url(#SVGID_2_)"
             d="m 95.339,56.114 c 5.694,-0.968 10.936,-1.616 15.578,-2.037 4.684,-0.442 9.589,-0.763 14.714,-0.91 0.389,-0.026 35.25,-1.816 75.404,15.367 L 130.568,8.729 63.058,64.393 c 8.294,-2.953 19.14,-6.058 32.281,-8.279 z"
             id="path3018" />
        </g>
        <g
           transform="matrix(1.0607121,0,0,1.0607121,-122.44615,483.02731)"
           id="g3020">
          <defs
             id="defs3022">
            <path
               inkscape:connector-curvature="0"
               id="SVGID_3_"
               d="m 47.965,70.697 c 3.236,-1.6 8.315,-3.91 15.093,-6.305 L 93.034,47.573 89.476,42.61 88.424,41.163 C 65.026,55.403 53.096,65.692 47.965,70.697 m 121.947,-28.593 -4.784,5.926 35.907,20.503 c 3.6,1.542 7.242,3.242 10.904,5.084 -4.126,-4.605 -12.525,-13.52 -20.672,-19.198 -0.115,-0.116 -13.356,-10.252 -20.135,-13.904 l -1.22,1.589 z m -78.867,-4.536 -2.442,1.747 0.342,-0.079 0.311,0.405 1.694,2.368 77.551,-0.616 1.801,-2.347 0.284,-0.384 0.463,0.089 c 0.053,0 0.095,0.016 0.142,0.026 L 168.428,36.809 130.726,4.981 91.045,37.568 z" />
          </defs>
          <clipPath
             id="SVGID_4_">
            <use
               height="1"
               width="1"
               y="0"
               x="0"
               style="overflow:visible"
               xlink:href="#SVGID_3_"
               overflow="visible"
               id="use3026" />
          </clipPath>
          <path
             style="fill:#007dc5"
             inkscape:connector-curvature="0"
             clip-path="url(#SVGID_4_)"
             d="m 95.339,56.114 c 5.694,-0.968 10.936,-1.616 15.578,-2.037 4.684,-0.442 9.589,-0.763 14.714,-0.91 0.389,-0.026 35.25,-1.816 75.404,15.367 L 130.568,8.729 63.058,64.393 c 8.294,-2.953 19.14,-6.058 32.281,-8.279"
             id="path3028" />
          <path
             style="fill:none;stroke:#6caedf;stroke-width:0.29640001"
             inkscape:connector-curvature="0"
             clip-path="url(#SVGID_4_)"
             d="m 95.339,56.114 c 5.694,-0.968 10.936,-1.616 15.578,-2.037 4.684,-0.442 9.589,-0.763 14.714,-0.91 0.389,-0.026 35.25,-1.816 75.404,15.367 L 130.568,8.729 63.058,64.393 c 8.294,-2.953 19.14,-6.058 32.281,-8.279 z"
             id="path3030" />
        </g>
        <g
           transform="matrix(1.0607121,0,0,1.0607121,-122.44615,483.02731)"
           id="g3032">
          <polygon
             style="fill:#ffffff;fill-rule:evenodd"
             clip-rule="evenodd"
             points="125.137,34.632 117.643,40.836 115.253,33.206 95.476,41.11 130.663,12.402 167.07,43.152 144.978,33.947 144.978,43.699 136.252,35.121 131.347,48.751 "
             id="polygon3034" />
          <path
             style="fill:#ffffff;fill-rule:evenodd"
             inkscape:connector-curvature="0"
             clip-rule="evenodd"
             d="m 62.005,83.012 -4.042,-11.22 c -0.137,-0.158 -0.526,0 -0.526,0 l -0.126,-0.237 10.357,-3.947 c 7.842,-1.847 9.104,3.442 9.104,3.442 1.916,5.926 -4.168,8.663 -4.168,8.663 L 61.836,83.802 61.71,83.529 c 0.411,-0.144 0.295,-0.517 0.295,-0.517 m 3.579,-3.605 4.652,-1.731 c 0,0 3.474,-1.379 2.358,-4.963 0,0 -0.937,-3.126 -5.147,-1.947 l -4.431,1.663 2.568,6.978 z"
             id="path3036" />
          <path
             style="fill:#ffffff;fill-rule:evenodd"
             inkscape:connector-curvature="0"
             clip-rule="evenodd"
             d="M 42.681,80.554 H 28.43 27.988 v 0.453 12.952 0.3 l 0.284,0.116 c 2.589,1.031 2.432,5.726 2.432,5.768 0,0.011 0.042,16.562 0.063,24.767 L 21.725,80.919 21.641,80.556 H 21.273 8.4 7.926 v 0.442 L 7.863,94.037 v 0.273 l 0.263,0.126 c 2.621,1.284 2.474,6.41 2.474,6.463 0,0.016 0.063,47.807 0.063,47.807 0.063,4.094 -2.4,5.541 -2.495,5.604 l -0.242,0.126 v 0.269 l 0.031,12.994 v 0.452 H 8.4 23.241 l 0.442,-0.011 0.021,-0.441 v -12.983 -0.269 l -0.242,-0.132 c -2.821,-1.437 -3.231,-5.625 -3.242,-5.668 0.011,0.032 0.011,-15.456 0.011,-23.334 l 8.652,42.49 0.063,0.363 h 0.379 10.63 l 0.474,-0.026 -0.021,-0.432 0.074,-67.609 c 0.116,-5.095 2.21,-5.347 2.231,-5.347 l 0.411,-0.048 c 0.01,0 0.01,-0.41 0.01,-0.41 V 81.006 80.553 h -0.453 z"
             id="path3048" />
          <path
             style="fill:#ffffff;fill-rule:evenodd"
             inkscape:connector-curvature="0"
             clip-rule="evenodd"
             d="m 76.878,85.812 c -0.063,0.005 -5.631,1.363 -15.904,6.236 l -0.263,0.126 v 0.284 13.235 0.537 l 0.537,-0.1 c 0,0 0.158,-0.016 0.316,0.142 0.21,0.185 0.537,0.689 0.516,2.126 0,0.017 -0.084,36.35 -0.084,36.35 0.031,1.074 -0.095,4.026 -0.979,4.879 -0.168,0.152 -0.316,0.21 -0.505,0.2 l -0.074,-0.006 -0.052,0.016 c -0.016,0 -0.379,0.053 -0.769,-0.3 -0.453,-0.39 -1.179,-1.536 -1.074,-4.842 v -31.302 c -0.105,-2.189 0.053,-5.947 0.895,-6.773 l 0.137,-0.132 v -0.189 -12.894 -0.679 l -0.632,0.269 c -0.095,0.031 -9.862,4.221 -15.43,8.23 l -0.189,0.137 v 0.227 12.957 0.626 l 0.6,-0.194 c 0,0 0.653,-0.206 1.137,0.157 0.463,0.353 0.716,1.105 0.716,2.216 v 31.35 c -0.021,0.353 -0.779,9.721 4.42,15.415 2.495,2.752 5.958,4.162 10.284,4.221 0.221,0 5.61,0.005 9.768,-4.21 3.242,-3.295 4.778,-8.179 4.6,-14.547 v -43.765 c 0,-0.063 -0.221,-4.063 2.368,-5.609 l 0.221,-0.132 V 99.816 86.253 85.669 l -0.56,0.143 z"
             id="path3050" />
          <path
             style="fill:#ffffff;fill-rule:evenodd"
             inkscape:connector-curvature="0"
             clip-rule="evenodd"
             d="m 107.749,86.59 -1.937,0.879 c -1.021,-1.3 -5.462,-6.273 -12.209,-6.026 -0.137,0 -14.609,0.184 -15.514,16.641 v 53.896 c 0,0.269 -0.126,7.314 4.494,12.077 2.674,2.764 6.389,4.174 11.02,4.189 0.084,0 9.578,0.353 14.672,-11.451 l 0.053,-0.09 v -0.095 -35.586 -0.458 H 107.875 93.55 93.087 v 0.458 10.23 0.452 h 0.463 1.663 v 12.557 c 0.069,1.032 0.063,3.863 -0.968,4.995 -0.284,0.32 -0.642,0.494 -1.052,0.494 -0.011,0 -0.411,0 -0.832,-0.442 -0.526,-0.563 -1.126,-1.857 -0.947,-4.867 v -39.85 c -0.053,-0.905 0.042,-3.395 0.968,-4.389 0.273,-0.273 0.589,-0.405 0.968,-0.405 0,0 0.411,0 0.832,0.426 0.453,0.474 1,1.526 0.958,3.815 v 9.552 0.453 h 0.442 12.357 0.453 V 113.592 87 86.3 l -0.643,0.29 z"
             id="path3052" />
          <path
             style="fill:#ffffff;fill-rule:evenodd"
             inkscape:connector-curvature="0"
             clip-rule="evenodd"
             d="m 140.988,82.732 -2.4,1.1 c -1.031,-1.268 -5.62,-6.347 -12.02,-6.347 -0.231,-0.011 -6.263,-0.311 -10.862,3.847 -3.052,2.742 -4.715,6.778 -4.968,11.978 v 58.369 c -0.011,0.252 -0.348,6.946 4.094,11.804 2.747,2.994 6.684,4.6 11.714,4.773 0.095,0 9.768,0.142 14.978,-11.668 l 0.021,-0.078 v -0.095 -35.429 -0.447 h -0.452 -14.593 -0.458 v 0.447 10.226 0.463 h 0.458 1.71 v 12.557 c 0.074,1.053 0.053,3.921 -0.989,5.089 -0.305,0.326 -0.652,0.5 -1.084,0.506 -0.031,0 -0.432,0 -0.853,-0.447 -0.547,-0.574 -1.168,-1.9 -0.979,-4.984 V 100.69 c -0.052,-0.922 0.042,-3.474 1.011,-4.479 0.273,-0.289 0.589,-0.426 0.968,-0.426 0.031,0 0.432,0.005 0.873,0.447 0.464,0.474 1.011,1.537 0.979,3.89 v 13.482 0.453 h 0.442 12.588 0.452 v -0.453 -30.456 -0.7 l -0.63,0.284 z"
             id="path3054" />
          <path
             style="fill:#ffffff;fill-rule:evenodd"
             inkscape:connector-curvature="0"
             clip-rule="evenodd"
             d="m 161.544,136.87 v 0.463 c 0.273,10.178 -1.41,13.078 -2.441,13.883 -0.231,0.195 -0.442,0.279 -0.59,0.311 v -19.898 h 6.631 0.453 v -0.437 -10.31 -0.447 h -0.453 -6.631 V 98.073 c 2.421,1.121 3.2,9.889 3.105,15.52 l -0.011,0.453 h 0.463 9.273 0.452 v -0.453 -29.108 -0.327 l -0.306,-0.121 C 157.954,79.579 143.818,78.79 143.692,78.78 l -0.484,-0.031 v 0.474 13.715 0.236 l 0.211,0.143 c 1.999,1.336 2.041,4.289 2.041,4.315 v 50.385 c 0.369,5.226 -1.747,5.831 -1.768,5.842 l -0.348,0.089 c -0.011,0 -0.021,14.193 -0.021,14.193 l 28.703,0.011 V 136.87 h -10.482 z"
             id="path3056" />
          <path
             style="fill:#ffffff;fill-rule:evenodd"
             inkscape:connector-curvature="0"
             clip-rule="evenodd"
             d="M 208.803,99.768 C 190.741,89.354 174.891,85.049 174.743,84.996 l -0.579,-0.163 v 0.595 28.166 0.453 h 0.452 8.115 0.432 l 0.011,-0.437 c 0.337,-7.778 1.558,-9.458 2.084,-9.8 0,-0.016 0.011,-0.016 0.011,-0.026 v 42.744 c 0.073,6.294 -2.916,7.431 -3.021,7.473 l -0.306,0.116 v 14.024 l 19.714,0.006 v -14.094 l -0.284,-0.105 c -3.273,-1.3 -3.126,-7.41 -3.126,-7.473 v -39.997 c 1.042,1.101 1.874,4.573 2.168,7.1 l 0.053,0.395 h 0.4 7.704 0.453 v -0.452 -13.356 -0.264 l -0.221,-0.133 z"
             id="path3058" />
          <path
             style="fill:#ffffff;fill-rule:evenodd"
             inkscape:connector-curvature="0"
             clip-rule="evenodd"
             d="m 241.632,83.443 -2.726,0.926 c -4.643,-4.752 -12.01,-4.483 -12.326,-4.473 -16.104,1.11 -15.693,15.93 -15.683,16.073 v 16.667 c 0.222,9.814 5.726,13.403 5.958,13.54 -0.021,-0.005 9.862,6.947 9.862,6.947 2.957,1.758 2.62,6.499 2.61,6.552 v 7.668 c -0.085,1.905 -0.559,3.305 -1.358,4.021 -0.6,0.548 -1.21,0.511 -1.231,0.511 l -0.011,-0.011 h -0.031 c -0.579,0.016 -1.063,-0.168 -1.474,-0.573 -1.273,-1.264 -1.242,-4.142 -1.242,-4.174 0,-0.01 -0.01,-7.331 -0.01,-7.331 v -0.463 h -0.442 -11.736 -0.463 v 0.463 25.63 l 0.021,0.916 0.726,-0.574 2.811,-2.331 c 5.263,5.157 11.188,4.831 11.441,4.82 5.115,0.048 9.136,-1.331 11.936,-4.12 3.947,-3.942 3.968,-9.205 3.968,-9.421 v -17.451 c 0.137,-9.114 -5.199,-13.352 -5.431,-13.524 -6.357,-4.59 -10.684,-7.615 -10.726,-7.647 -2.137,-1.415 -1.915,-5.763 -1.915,-5.81 v -9.494 c 0.063,-4.457 2.347,-4.542 2.441,-4.542 0.769,0 1.337,0.222 1.789,0.685 1.137,1.142 1.063,3.373 1.063,3.399 v 12.71 l 0.053,0.441 h 0.399 l 11.884,0.026 h 0.441 v -0.468 -29.167 -0.621 l -0.598,0.2 z"
             id="path3060" />
          <path
             style="fill:#fdb827;fill-rule:evenodd"
             inkscape:connector-curvature="0"
             clip-rule="evenodd"
             d="m 39.565,100.084 c 0,0.016 -0.053,61.305 -0.063,67.168 h -9.81 l -9.483,-46.522 -0.895,0.089 v 27.872 c 0.032,0.226 0.474,4.499 3.474,6.283 v 12.278 H 8.863 l -0.032,-12.31 c 0.716,-0.495 2.8,-2.295 2.737,-6.247 l -0.074,-47.791 c 0.011,-0.205 0.158,-5.415 -2.726,-7.125 L 8.831,81.453 h 12.073 l 9.873,48.043 0.905,-0.09 -0.073,-29.244 c 0.021,-0.2 0.158,-5.021 -2.716,-6.489 v -12.22 h 13.336 v 12.494 c -0.822,0.295 -2.537,1.469 -2.664,6.137"
             id="path3062" />
          <path
             style="fill:#fdb827;fill-rule:evenodd"
             inkscape:connector-curvature="0"
             clip-rule="evenodd"
             d="m 73.941,105.841 v 43.749 c 0.179,6.115 -1.273,10.794 -4.326,13.894 -3.884,3.947 -9.073,3.921 -9.136,3.921 -4.052,-0.021 -7.284,-1.342 -9.621,-3.884 -4.915,-5.41 -4.189,-14.678 -4.178,-14.772 v -31.397 c 0,-1.441 -0.379,-2.437 -1.084,-2.952 -0.474,-0.337 -0.989,-0.39 -1.368,-0.374 v -12.193 c 4.684,-3.326 12.22,-6.752 14.441,-7.726 v 12.041 c -1.242,1.595 -1.063,6.668 -1.021,7.268 v 31.266 c -0.105,2.831 0.379,4.7 1.4,5.573 0.684,0.568 1.347,0.5 1.495,0.469 0.4,0 0.79,-0.147 1.095,-0.438 1.336,-1.294 1.273,-5.115 1.273,-5.552 0,0.016 0.063,-36.317 0.063,-36.317 0.032,-1.4 -0.252,-2.358 -0.831,-2.848 -0.179,-0.158 -0.369,-0.253 -0.526,-0.284 V 92.748 c 8.199,-3.874 13.293,-5.453 14.915,-5.9 v 12.736 c -2.822,1.905 -2.601,6.084 -2.591,6.257"
             id="path3064" />
          <path
             style="fill:#fdb827;fill-rule:evenodd"
             inkscape:connector-curvature="0"
             clip-rule="evenodd"
             d="m 94.792,99.558 c -0.684,-0.674 -1.389,-0.674 -1.458,-0.658 -0.616,0 -1.163,0.227 -1.595,0.695 -1.4,1.468 -1.252,4.873 -1.242,5.021 v 39.791 c -0.147,2.705 0.274,4.584 1.258,5.578 0.684,0.695 1.395,0.674 1.479,0.674 0.663,-0.026 1.216,-0.269 1.679,-0.784 1.51,-1.668 1.205,-5.479 1.205,-5.636 v -12.983 -0.447 h -0.453 -1.663 v -9.326 h 13.409 v 35.034 c -4.852,11.136 -13.409,10.841 -13.767,10.831 -4.431,-0.017 -7.915,-1.337 -10.42,-3.905 -4.357,-4.51 -4.231,-11.389 -4.231,-11.452 v -53.87 c 0.863,-15.573 14.051,-15.778 14.609,-15.778 7.126,-0.258 11.673,5.889 11.705,5.947 l 0.221,0.29 0.348,-0.142 1.6,-0.737 v 25.44 H 96.044 v -9.089 c 0.022,-2.131 -0.399,-3.647 -1.252,-4.494"
             id="path3066" />
          <path
             style="fill:#fdb827;fill-rule:evenodd"
             inkscape:connector-curvature="0"
             clip-rule="evenodd"
             d="m 127.758,95.558 c -0.695,-0.694 -1.41,-0.679 -1.474,-0.679 -0.632,0 -1.168,0.237 -1.631,0.7 -1.421,1.51 -1.253,4.989 -1.242,5.12 v 43.659 c -0.168,2.758 0.263,4.674 1.252,5.689 0.716,0.705 1.421,0.689 1.516,0.679 0.663,-0.011 1.253,-0.284 1.716,-0.805 1.526,-1.689 1.221,-5.573 1.2,-5.736 0.01,0.047 0.01,-12.973 0.01,-12.973 v -0.453 h -0.441 -1.716 v -9.32 h 13.693 v 34.871 c -4.947,11.141 -13.978,11.046 -14.062,11.046 -4.768,-0.163 -8.505,-1.673 -11.073,-4.483 -4.168,-4.558 -3.863,-11.104 -3.863,-11.178 V 93.326 c 0.242,-4.92 1.8,-8.736 4.663,-11.314 4.315,-3.905 10.178,-3.637 10.231,-3.626 6.726,0 11.515,6.215 11.567,6.284 l 0.21,0.294 0.348,-0.163 2.063,-0.947 v 29.303 h -11.683 v -13.025 c 0.031,-2.164 -0.411,-3.711 -1.284,-4.574"
             id="path3068" />
          <path
             style="fill:#fdb827;fill-rule:evenodd"
             inkscape:connector-curvature="0"
             clip-rule="evenodd"
             d="M 146.366,147.99 V 97.632 c 0,-0.132 -0.031,-3.258 -2.252,-4.921 V 79.717 c 2.536,0.173 14.841,1.21 26.787,5.083 v 28.335 h -8.368 c 0.021,-2.984 -0.147,-15.884 -4.473,-16.094 l -0.464,-0.021 v 0.48 23.382 0.463 h 0.453 6.642 v 9.379 h -6.642 -0.453 v 0.468 20.788 0.331 l 0.316,0.101 c 0.084,0.026 0.82,0.236 1.684,-0.432 1.432,-1.079 3.058,-4.416 2.874,-14.21 h 8.651 v 29.482 H 144.25 V 154.6 c 0.759,-0.384 2.453,-1.789 2.116,-6.61"
             id="path3070" />
          <path
             style="fill:#fdb827;fill-rule:evenodd"
             inkscape:connector-curvature="0"
             clip-rule="evenodd"
             d="m 197.889,105.226 -0.548,-0.095 v 0.563 40.76 c 0,0.258 -0.137,6.452 3.421,8.184 v 12.615 h -17.914 v -12.536 c 0.884,-0.452 3.399,-2.305 3.326,-8.204 V 103.3 103.016 l -0.242,-0.131 c -0.053,-0.016 -0.495,-0.237 -1.084,0.105 -1.421,0.82 -2.273,4.236 -2.548,10.146 h -7.241 V 86.022 c 2.969,0.874 17.125,5.242 33.061,14.404 v 12.646 h -6.862 c -0.243,-1.879 -1.181,-7.415 -3.369,-7.846"
             id="path3072" />
          <path
             style="fill:#fdb827;fill-rule:evenodd"
             inkscape:connector-curvature="0"
             clip-rule="evenodd"
             d="m 229.044,96.289 c -0.632,-0.642 -1.458,-0.963 -2.442,-0.957 -0.132,0 -3.289,0.025 -3.347,5.431 v 9.483 c -0.011,0.174 -0.264,4.889 2.31,6.589 0.037,0.026 4.363,3.042 10.688,7.631 0.053,0.021 5.2,4.131 5.063,12.778 v 17.461 c 0,0.053 -0.026,5.126 -3.705,8.789 -2.621,2.589 -6.426,3.899 -11.315,3.853 -0.095,0 -6.03,0.311 -11.057,-4.848 l -0.289,-0.294 -0.326,0.263 -2.4,1.989 v -24.229 h 10.852 c 0,1.6 0.017,6.873 0.017,6.857 -0.006,0.142 -0.048,3.305 1.499,4.847 0.568,0.574 1.284,0.853 2.127,0.837 h -0.053 c 0.026,0 0.968,0.09 1.862,-0.694 1.032,-0.89 1.601,-2.484 1.695,-4.705 v -7.657 c 0.031,-0.185 0.399,-5.32 -3.011,-7.347 0.042,0.021 -9.852,-6.941 -9.852,-6.941 -0.084,-0.037 -5.347,-3.5 -5.558,-12.805 V 95.942 c -0.011,-0.585 -0.384,-14.083 14.841,-15.146 0.048,0 7.457,-0.258 11.81,4.405 l 0.2,0.21 0.273,-0.095 2.39,-0.815 v 28.082 h -10.957 v -12.257 c 0.011,-0.09 0.084,-2.616 -1.315,-4.037"
             id="path3074" />
        </g>
        <path
           sodipodi:nodetypes="ccccccccccccscccc"
           style="fill:#ffffff;fill-rule:evenodd"
           inkscape:connector-curvature="0"
           clip-rule="evenodd"
           d="m 46.667868,547.25434 -0.322564,3.82853 -0.182349,-0.0314 c 0,0 -0.05988,-0.47048 -0.413179,-0.75416 l -4.872144,-0.60675 -1.13959,9.84687 c 0.200208,0.5304 0.65632,0.62638 0.65632,0.62638 l -0.02959,0.23024 -6.092995,-1.00376 0.04561,-0.2432 c 0.44452,0.0717 0.786626,-0.34479 0.786626,-0.34479 l 1.292892,-9.72191 c 0,0 -4.711827,-0.69664 -4.745692,-0.68778 -0.308502,0.0808 -0.596344,0.64266 -0.596344,0.64266 l -0.185363,-0.0243 0.460173,-3.78839 c 0.01834,0.029 15.338168,2.03176 15.338168,2.03176 z"
           id="path3042-2" />
      </g>
      <path
         id="path3046"
         d="m 107.35159,933.16554 0.0264,0.28174 c 0.14821,-0.009 0.24906,0.0205 0.27751,0.26172 0.0295,0.24614 -0.13079,0.39212 -0.19209,0.61414 l -4.38637,11.50178 c -0.20174,0.57988 -0.2639,0.85824 -0.73557,0.91801 l 0.0327,0.31234 5.57276,-0.67391 0.0285,-0.325 c -0.2168,0.0183 -0.2873,-0.0511 -0.30178,-0.22479 -0.0242,-0.2748 0.16668,-0.59509 0.28182,-0.9518 l 0.91082,-2.23071 4.97337,-0.48612 1.05621,1.24948 c 0.90836,1.06918 0.85953,1.27738 0.94117,1.46473 0.0601,0.18671 -0.0896,0.32718 -0.31027,0.35137 l 0.002,0.31869 6.1236,-0.78784 -0.0264,-0.28174 c -0.60326,-0.058 -0.7026,-0.11866 -1.04675,-0.74085 l -7.05883,-10.06007 -0.24163,-0.39679 c 0,0 -0.21733,-0.31143 0.0771,-0.39887 l -0.0633,-0.30603 -5.94103,0.59052 z m 3.21077,4.56941 2.30653,3.12894 -3.50341,0.34165 1.19688,-3.47059 z"
         style="fill:#ffffff;fill-rule:evenodd"
         inkscape:connector-curvature="0" />
      <path
         id="path3046-1"
         d="m 198.16321,944.08729 -0.11236,0.25971 c 0.13436,0.0632 0.2085,0.13776 0.11741,0.36294 -0.0926,0.22996 -0.30328,0.28086 -0.46382,0.44602 l -9.37803,7.97394 c -0.45579,0.41136 -0.64418,0.6255 -1.08645,0.45102 l -0.12154,0.28959 5.20989,2.0897 0.18128,-0.27124 c -0.19888,-0.0883 -0.2273,-0.18302 -0.15645,-0.34224 0.111,-0.25254 0.43237,-0.44155 0.70489,-0.69891 l 1.87152,-1.51758 4.59407,1.96603 0.32499,1.60348 c 0.28209,1.3743 0.13913,1.53334 0.12059,1.73686 -0.0371,0.19258 -0.23592,0.24375 -0.44103,0.15882 l -0.15145,0.2804 5.74761,2.25478 0.11237,-0.25971 c -0.50098,-0.34104 -0.5589,-0.44198 -0.56135,-1.15301 l -1.34965,-12.21518 -0.021,-0.46409 c 0,0 -0.0407,-0.37758 0.25942,-0.31264 l 0.0917,-0.29874 -5.49265,-2.33995 z m 0.61703,5.55047 0.51713,3.85266 -3.23583,-1.38563 2.7187,-2.46703 z"
         style="fill:#ffffff;fill-rule:evenodd"
         inkscape:connector-curvature="0" />
    </g>
  </g>
</svg>
